<?xml version="1.0" standalone="no"?>
<!DOCTYPE svg PUBLIC "-//W3C//DTD SVG 20010904//EN"
 "http://www.w3.org/TR/2001/REC-SVG-20010904/DTD/svg10.dtd">
<svg version="1.0" xmlns="http://www.w3.org/2000/svg"
 width="840.000000pt" height="840.000000pt" viewBox="0 0 840.000000 840.000000"
 preserveAspectRatio="xMidYMid meet">
<metadata>
Created by potrace 1.14, written by Peter Selinger 2001-2017
</metadata>
<g transform="translate(0.000000,840.000000) scale(0.100000,-0.100000)"
fill="#000000" stroke="none">
<path d="M4037 6573 c-109 -58 -225 -193 -334 -388 -69 -125 -183 -366 -183
-388 0 -7 -4 -17 -8 -22 -7 -8 -37 -78 -72 -170 -35 -92 -43 -112 -51 -127 -5
-10 -9 -25 -9 -33 0 -8 -4 -23 -9 -33 -23 -46 -41 -95 -41 -112 0 -10 -4 -22
-10 -25 -5 -3 -10 -17 -10 -30 0 -13 -4 -27 -10 -30 -5 -3 -10 -14 -10 -23 0
-9 -7 -30 -15 -46 -8 -15 -15 -37 -15 -47 0 -10 -4 -21 -10 -24 -5 -3 -10 -16
-10 -29 0 -12 -4 -26 -8 -31 -4 -6 -21 -50 -36 -100 -16 -49 -39 -119 -51
-155 -12 -36 -44 -132 -70 -215 -26 -82 -53 -165 -61 -183 -8 -18 -14 -39 -14
-47 0 -9 -4 -23 -9 -33 -5 -9 -26 -71 -46 -137 -21 -66 -46 -145 -57 -175 -11
-30 -22 -64 -25 -75 -2 -11 -8 -29 -13 -40 -4 -11 -15 -42 -23 -70 -15 -49
-33 -100 -47 -140 -4 -11 -15 -42 -23 -70 -9 -27 -30 -88 -47 -135 -18 -47
-34 -95 -37 -108 -3 -12 -9 -25 -14 -28 -5 -3 -9 -15 -9 -28 0 -12 -3 -26 -7
-30 -7 -6 -20 -42 -49 -126 -8 -25 -19 -54 -23 -65 -5 -11 -16 -40 -26 -65
-39 -100 -42 -109 -79 -193 -14 -32 -26 -60 -26 -62 0 -7 -145 -301 -173 -350
-40 -73 -70 -120 -103 -160 -17 -22 -33 -46 -35 -52 -8 -24 -155 -165 -199
-192 -79 -46 -160 -65 -175 -41 -3 5 -18 10 -32 10 -21 0 -116 43 -133 60 -3
3 -30 24 -60 46 -78 58 -198 180 -320 324 -58 68 -125 147 -150 175 -25 29
-54 63 -64 76 -120 152 -352 384 -461 460 -172 120 -330 177 -422 153 -21 -6
-23 -12 -23 -79 l0 -73 52 -17 c110 -34 163 -61 263 -130 86 -60 288 -254 372
-357 52 -63 185 -220 200 -236 7 -7 29 -34 50 -60 77 -96 267 -294 353 -368
45 -39 135 -97 203 -130 48 -25 62 -26 197 -27 l145 -2 75 37 c108 53 147 88
290 258 16 19 35 46 42 60 7 14 16 27 19 30 3 3 14 19 23 35 9 17 26 46 38 65
24 41 149 289 171 340 8 19 25 58 37 85 37 83 47 108 60 145 12 34 34 87 51
122 5 10 9 25 9 33 0 8 4 23 9 33 5 9 17 37 26 62 9 25 21 53 26 62 5 10 9 26
9 36 0 10 3 22 7 26 7 7 19 39 63 166 38 113 52 151 60 175 4 11 15 43 23 70
23 72 38 118 48 137 5 10 9 23 9 30 0 7 11 42 24 78 13 36 40 119 61 185 21
66 41 129 45 140 4 11 20 61 35 110 15 50 31 99 35 110 5 11 11 29 13 40 3 11
15 47 26 80 12 33 26 76 32 95 6 19 16 51 24 70 7 19 25 76 41 125 15 50 31
97 35 105 3 8 12 33 18 55 7 22 16 49 21 60 4 11 15 43 25 70 9 28 20 59 24
70 5 11 16 45 26 75 10 30 22 59 26 65 5 5 9 19 9 31 0 13 5 26 10 29 6 3 10
15 10 26 0 10 4 27 10 37 11 21 33 74 50 122 7 19 20 53 30 75 10 22 32 76 51
120 18 44 52 120 76 168 24 48 43 90 43 93 0 3 16 30 35 60 19 30 35 57 35 59
0 13 128 182 169 223 104 104 182 108 290 16 99 -85 248 -326 354 -574 8 -19
24 -57 36 -83 12 -26 29 -67 37 -90 9 -23 23 -58 31 -77 8 -19 18 -44 23 -55
4 -11 13 -36 20 -55 7 -19 18 -48 25 -65 7 -16 18 -48 25 -70 7 -22 16 -48 21
-57 5 -10 9 -27 9 -37 0 -11 5 -23 10 -26 6 -3 10 -14 10 -23 0 -9 7 -30 15
-46 8 -15 15 -37 15 -47 0 -10 5 -21 10 -24 6 -3 10 -15 10 -25 0 -11 7 -36
16 -57 23 -53 27 -63 69 -198 20 -66 41 -129 45 -140 19 -52 32 -92 37 -110 2
-11 8 -29 13 -40 4 -11 24 -74 45 -140 20 -66 41 -129 45 -140 13 -32 36 -106
50 -155 7 -25 16 -54 20 -65 5 -11 16 -45 26 -75 9 -30 20 -64 24 -75 19 -53
33 -94 47 -140 8 -27 19 -59 23 -70 14 -40 32 -91 47 -140 16 -52 22 -69 43
-120 7 -16 25 -68 40 -115 15 -47 33 -98 40 -115 7 -16 16 -39 21 -50 4 -11
15 -40 23 -65 8 -25 20 -58 26 -75 7 -16 16 -39 20 -50 4 -11 15 -38 25 -60
21 -51 33 -80 44 -107 5 -13 21 -49 35 -80 14 -31 26 -63 26 -70 0 -8 4 -18 9
-23 5 -6 35 -59 65 -120 72 -141 173 -314 196 -335 3 -3 22 -28 42 -55 43 -59
175 -185 194 -185 3 0 18 -9 33 -20 57 -40 120 -54 246 -54 130 -1 172 9 273
65 149 81 334 265 612 608 19 24 40 48 45 55 6 6 35 40 65 76 54 65 273 287
320 325 66 54 102 77 164 110 37 19 74 35 82 35 8 0 14 5 14 10 0 6 8 10 18
10 19 0 80 20 100 33 14 9 17 114 3 136 -14 21 -94 25 -153 7 -29 -9 -71 -22
-93 -28 -22 -7 -42 -15 -45 -19 -3 -3 -27 -18 -54 -33 -89 -49 -199 -138 -306
-245 -79 -80 -206 -220 -242 -268 -12 -15 -25 -30 -28 -33 -7 -6 -100 -116
-126 -149 -11 -13 -23 -28 -29 -35 -5 -6 -35 -40 -65 -76 -64 -77 -239 -252
-294 -295 -36 -29 -140 -92 -161 -99 -95 -31 -109 -32 -152 -15 -70 28 -103
45 -103 52 0 4 -6 7 -12 7 -41 0 -265 284 -332 420 -9 19 -25 49 -36 65 -10
17 -19 36 -19 43 -1 7 -12 30 -26 52 -14 22 -25 45 -25 52 0 7 -15 45 -34 83
-51 105 -86 184 -86 195 0 6 -4 18 -9 28 -9 18 -19 42 -46 112 -9 25 -21 53
-26 62 -5 10 -9 26 -9 36 0 10 -3 22 -7 26 -7 7 -17 32 -64 171 -17 50 -35 94
-40 99 -5 6 -9 20 -9 32 0 13 -4 25 -9 28 -5 3 -11 18 -14 33 -4 24 -20 74
-57 178 -19 53 -33 94 -47 140 -8 28 -19 59 -23 70 -14 38 -31 90 -47 140 -9
28 -30 95 -48 150 -18 55 -49 154 -70 220 -21 66 -41 129 -45 140 -5 11 -16
45 -25 75 -10 30 -21 63 -26 72 -5 10 -9 23 -9 30 0 7 -11 42 -24 78 -13 36
-29 85 -36 110 -7 25 -18 59 -25 75 -7 17 -18 48 -25 70 -7 22 -16 48 -21 57
-5 10 -9 24 -9 32 0 7 -7 27 -15 42 -8 16 -15 37 -15 46 0 9 -4 20 -10 23 -5
3 -10 17 -10 30 0 13 -4 27 -10 30 -5 3 -10 16 -10 29 0 12 -4 26 -8 32 -5 5
-17 32 -26 59 -10 28 -21 59 -26 70 -4 11 -15 40 -25 65 -10 25 -22 56 -28 70
-5 14 -14 36 -19 50 -6 14 -16 39 -23 55 -7 17 -17 41 -23 55 -28 68 -154 330
-175 364 -103 168 -133 210 -207 283 -104 104 -172 133 -308 133 -92 -1 -100
-2 -165 -37z"/>
</g>
</svg>
