<?xml version="1.0" encoding="UTF-8" standalone="no"?>
<!-- Created with Inkscape (http://www.inkscape.org/) -->

<svg
   width="122mm"
   height="74mm"
   viewBox="0 0 122 74"
   version="1.1"
   id="svg27966"
   xml:space="preserve"
   inkscape:version="1.2.1 (9c6d41e, 2022-07-14)"
   sodipodi:docname="aufgabenpool-logo.svg"
   xmlns:inkscape="http://www.inkscape.org/namespaces/inkscape"
   xmlns:sodipodi="http://sodipodi.sourceforge.net/DTD/sodipodi-0.dtd"
   xmlns="http://www.w3.org/2000/svg"
   xmlns:svg="http://www.w3.org/2000/svg"><sodipodi:namedview
     id="namedview27968"
     pagecolor="#ffffff"
     bordercolor="#000000"
     borderopacity="0.25"
     inkscape:showpageshadow="2"
     inkscape:pageopacity="0.0"
     inkscape:pagecheckerboard="0"
     inkscape:deskcolor="#d1d1d1"
     inkscape:document-units="mm"
     showgrid="false"
     inkscape:zoom="0.7185853"
     inkscape:cx="324.24821"
     inkscape:cy="370.17178"
     inkscape:window-width="1440"
     inkscape:window-height="802"
     inkscape:window-x="0"
     inkscape:window-y="25"
     inkscape:window-maximized="1"
     inkscape:current-layer="layer1" /><defs
     id="defs27963" /><g
     inkscape:label="Layer 1"
     inkscape:groupmode="layer"
     id="layer1"><path
       id="path28196"
       style="opacity:1;fill:#000000;stroke:#009d00;stroke-width:0.264583"
       d="M 33.883042,58.718599 C 30.127631,58.573111 30.39916,53.807358 23.544655,45.599503 19.303925,40.521484 8.0811042,32.912262 5.2083072,37.961727 -1.8957451,50.448393 11.811497,48.895482 16.029352,55.063525 c 4.6196,6.755542 10.974445,16.242595 18.48776,16.151465 20.177759,0.57929 17.027767,-55.299811 26.919551,-55.299811 9.891784,0 5.967679,55.569661 26.919023,55.299811 7.513315,0.0911 13.868154,-9.395923 18.487764,-16.151465 4.21785,-6.168043 17.92509,-4.615132 10.82104,-17.101798 -2.8728,-5.049465 -14.09561,2.559757 -18.336349,7.637776 -6.8545,8.207855 -6.58297,14.561108 -10.338385,14.706596 -13.740977,0.532339 -5.93222,-57.8229845 -27.553357,-57.8229845 -21.621137,0 -13.812365,56.7678235 -27.553357,56.2354845 z"
       sodipodi:nodetypes="ssssczcsssszs" /></g></svg>
